# xmcd
#
# Track frame offsets:
#	150
#	20297
#	43152
#	68139
#	87429
#	108709
#	125516
#	145031
#	161713
#	178775
#	197207
#	210637
#
# Disc length: 3100 seconds
#
# Revision: 2
# Processed by: cddbd v1.5.2PL0 Copyright (c) Steve Scherf et al.
# Submitted via: dBpowerAMP V4.0
#
DISCID=b00c1a0c
DTITLE=The Hi-Fly Orchestra - Samboogaloo
DYEAR=2007
DGENRE=Latin
TTITLE0=Mo' Slow
TTITLE1=Soul Bossa Nova
TTITLE2=Bruno the Bear
TTITLE3=Suinge Dela
TTITLE4=Hi-Fidelity
TTITLE5=Samboogaloo
TTITLE6=Liberated Brother
TTITLE7=Belo Horiztone
TTITLE8=Madrugada Orange
TTITLE9=Sweet Honey Bee
TTITLE10=Soulfinder
TTITLE11=Violet
EXTD=
EXTT0=
EXTT1=
EXTT2=
EXTT3=
EXTT4=
EXTT5=
EXTT6=
EXTT7=
EXTT8=
EXTT9=
EXTT10=
EXTT11=
PLAYORDER=
